<?xml version="1.0" standalone="no"?><!DOCTYPE svg PUBLIC "-//W3C//DTD SVG 1.1//EN" "http://www.w3.org/Graphics/SVG/1.1/DTD/svg11.dtd"><svg width="108px" height="40px" viewBox="0 0 70 25" version="1.1" xmlns="http://www.w3.org/2000/svg" xmlns:xlink="http://www.w3.org/1999/xlink" style="border-bottom-color:rgb(136, 152, 170);border-left-color:rgb(136, 152, 170);border-right-color:rgb(136, 152, 170);border-top-color:rgb(136, 152, 170);color:rgb(136, 152, 170);display:inline;font-size:22.5px;font-weight:bold;height:40px;line-height:30px;list-style-type:none;min-height:0px;min-width:0px;opacity:0.699999988079071;outline-color:rgb(136, 152, 170);text-align:left;-webkit-text-decoration-color:rgb(136, 152, 170);transform-origin:54px 20px;white-space:nowrap;width:108px;z-index:0;column-rule-color:rgb(136, 152, 170);perspective-origin:54px 20px;-webkit-text-emphasis-color:rgb(136, 152, 170);-webkit-text-fill-color:rgb(136, 152, 170);-webkit-text-stroke-color:rgb(136, 152, 170);fill:rgb(255, 255, 255);">
                            <title style="border-bottom-color:rgb(136, 152, 170);border-left-color:rgb(136, 152, 170);border-right-color:rgb(136, 152, 170);border-top-color:rgb(136, 152, 170);color:rgb(136, 152, 170);display:inline;font-size:22.5px;font-weight:bold;height:auto;line-height:30px;list-style-type:none;min-height:0px;min-width:0px;outline-color:rgb(136, 152, 170);overflow-x:visible;overflow-y:visible;text-align:left;-webkit-text-decoration-color:rgb(136, 152, 170);transform-origin:0px 0px;white-space:nowrap;width:auto;column-rule-color:rgb(136, 152, 170);perspective-origin:50% 50%;-webkit-text-emphasis-color:rgb(136, 152, 170);-webkit-text-fill-color:rgb(136, 152, 170);-webkit-text-stroke-color:rgb(136, 152, 170);fill:rgb(255, 255, 255);">Zagu</title>
                            <path d="M14.23,3.34q-.7.73-1.82,2.05T10,8.33Q8.7,9.95,7.4,11.7T5.06,15.05H14.4v3.49H0V15.9a29.64,29.64,0,0,1,1.89-3Q3,11.25,4.25,9.6T6.66,6.46c.8-1,1.51-1.86,2.13-2.58H.44V.39H14.23ZM23.45,0a18,18,0,0,0-3.23.27,16.4,16.4,0,0,0-2.3.55l.51,3.36a11.62,11.62,0,0,1,2-.48A15.68,15.68,0,0,1,23,3.51a4.91,4.91,0,0,1,1.77.27,2.82,2.82,0,0,1,1.13.77,2.85,2.85,0,0,1,.6,1.15,5.38,5.38,0,0,1,.17,1.37v.69a13.51,13.51,0,0,0-1.61-.29,12.85,12.85,0,0,0-1.44-.09,13.45,13.45,0,0,0-2.83.29,7.06,7.06,0,0,0-2.39,1,4.93,4.93,0,0,0-1.63,1.73,5.23,5.23,0,0,0-.6,2.61,6.18,6.18,0,0,0,.53,2.71,4.69,4.69,0,0,0,1.48,1.78,6.2,6.2,0,0,0,2.28,1,13.13,13.13,0,0,0,3,.31,29.65,29.65,0,0,0,4.38-.29q1.94-.29,2.9-.5V7.11a11,11,0,0,0-.36-2.9A5.4,5.4,0,0,0,29.16,2,5.54,5.54,0,0,0,26.92.52,10.16,10.16,0,0,0,23.45,0m.22,15.54A4.83,4.83,0,0,1,21.14,15a2.22,2.22,0,0,1-.94-2.06,2.18,2.18,0,0,1,.35-1.27,2.33,2.33,0,0,1,.92-.78,4.38,4.38,0,0,1,1.28-.38,9.67,9.67,0,0,1,1.4-.1,9.37,9.37,0,0,1,1.46.1,8.18,8.18,0,0,1,1,.21v4.65a15.62,15.62,0,0,1-2.95.21M49.32,1Q48,.62,46.2.31A23.16,23.16,0,0,0,42.32,0a10.19,10.19,0,0,0-3.77.66,8.08,8.08,0,0,0-2.82,1.84A7.77,7.77,0,0,0,34,5.33,10.54,10.54,0,0,0,33.35,9a11.11,11.11,0,0,0,.57,3.72,7.43,7.43,0,0,0,1.59,2.68A6.63,6.63,0,0,0,38,17a8.73,8.73,0,0,0,3.17.55,8,8,0,0,0,2.34-.31,10.88,10.88,0,0,0,1.64-.62v.69a4.1,4.1,0,0,1-1.07,3.08,5.09,5.09,0,0,1-3.6,1,14.93,14.93,0,0,1-3-.28,13,13,0,0,1-2.44-.73L34.29,24a18.13,18.13,0,0,0,2.86.73,18.68,18.68,0,0,0,3.24.28q4.54,0,6.73-2t2.2-6.34ZM37.63,9a6.14,6.14,0,0,1,1.21-4,4.23,4.23,0,0,1,3.5-1.51A13.21,13.21,0,0,1,44,3.57q.66.09,1.11.19v9.4a5.39,5.39,0,0,1-1.44.66,6.27,6.27,0,0,1-1.89.28,3.94,3.94,0,0,1-3-1.23A5.54,5.54,0,0,1,37.63,9M68.08.39H63.89V15.06a8.56,8.56,0,0,1-1.27.17q-.85.07-1.62.07a3.35,3.35,0,0,1-3-1.25,7.64,7.64,0,0,1-.85-4.16V.39H53V10.55a14.05,14.05,0,0,0,.38,3.38,6.81,6.81,0,0,0,1.27,2.65A5.87,5.87,0,0,0,57,18.32a9.42,9.42,0,0,0,3.66.62,25.64,25.64,0,0,0,4.27-.33q1.94-.33,3.16-.64Z" style="border-bottom-color:rgb(136, 152, 170);border-left-color:rgb(136, 152, 170);border-right-color:rgb(136, 152, 170);border-top-color:rgb(136, 152, 170);color:rgb(136, 152, 170);display:inline;font-size:22.5px;font-weight:bold;height:auto;line-height:30px;list-style-type:none;min-height:0px;min-width:0px;outline-color:rgb(136, 152, 170);overflow-x:visible;overflow-y:visible;text-align:left;-webkit-text-decoration-color:rgb(136, 152, 170);transform-origin:0px 0px;white-space:nowrap;width:auto;column-rule-color:rgb(136, 152, 170);perspective-origin:0px 0px;-webkit-text-emphasis-color:rgb(136, 152, 170);-webkit-text-fill-color:rgb(136, 152, 170);-webkit-text-stroke-color:rgb(136, 152, 170);fill:rgb(255, 255, 255);"/>
                        </svg>